<svg
            xmlns="http://www.w3.org/2000/svg"            
            viewBox="0 0 512 512"
            fill="none"
          >
            <path
              d="M447.829 250.005L448 213.333C448 107.477 361.856 21.3333 256 21.3333C150.144 21.3333 64 107.477 64 213.376L64.1707 249.984C42.6667 270.485 42.6667 299.456 42.6667 309.333C42.6667 334.016 55.808 384.768 87.2107 402.219C91.712 413.931 107.413 440.704 157.888 456.555C183.765 479.083 216.576 490.667 256 490.667C295.424 490.667 328.235 479.083 354.112 456.555C404.587 440.683 420.288 413.931 424.789 402.219C456.192 384.768 469.333 334.016 469.333 309.333C469.333 299.456 469.333 270.485 447.829 250.005Z"
              fill="black"
            />
            <path
              d="M256 469.333C214.571 469.333 181.653 454.976 158.165 426.667C138.709 403.221 128 371.627 128 337.664V297.429C140.614 310.447 157.55 318.407 175.622 319.813C193.694 321.22 211.657 315.975 226.133 305.067L243.2 292.267C246.933 289.584 251.414 288.141 256.011 288.141C260.608 288.141 265.088 289.584 268.821 292.267L285.867 305.067C300.343 315.975 318.306 321.22 336.378 319.813C354.45 318.407 371.386 310.447 384 297.429V337.664C384 342.656 383.296 347.435 382.848 352.299C380.313 364.267 373.749 375.003 364.252 382.714C354.755 390.425 342.9 394.644 330.667 394.667H316.715C314.898 391.469 312.277 388.802 309.111 386.93C305.945 385.059 302.344 384.049 298.667 384H277.333C265.579 384 256 393.579 256 405.333C256 417.088 265.579 426.667 277.333 426.667H298.667C302.345 426.62 305.946 425.611 309.113 423.739C312.279 421.868 314.9 419.199 316.715 416H330.667C344.149 416 356.629 412.139 367.552 405.867C363.702 413.246 359.113 420.215 353.856 426.667C330.347 454.976 297.429 469.333 256 469.333Z"
              fill="white"
            />
            <path
              d="M384 245.333C384 274.731 360.064 298.667 330.667 298.667C319.189 298.667 307.84 294.869 298.667 288L281.6 275.2C274.261 269.717 265.173 266.688 256.021 266.688C246.869 266.688 237.781 269.717 230.421 275.221L213.333 288C204.181 294.869 192.811 298.667 181.333 298.667C167.194 298.65 153.638 293.025 143.64 283.027C133.641 273.029 128.017 259.473 128 245.333V241.792C128 231.509 134.976 222.592 144.939 220.075C162.88 215.595 181.355 213.333 199.851 213.333H312.171C330.667 213.333 349.141 215.595 367.061 220.075C377.045 222.571 384 231.509 384 241.792V245.333Z"
              fill="#37474F"
            />
            <path
              d="M384 245.333C384 274.731 360.064 298.667 330.667 298.667C319.189 298.667 307.84 294.869 298.667 288L281.6 275.2C274.261 269.717 265.173 266.688 256.021 266.688C246.869 266.688 237.781 269.717 230.421 275.221L213.333 288C204.181 294.869 192.811 298.667 181.333 298.667C167.194 298.65 153.638 293.025 143.64 283.027C133.641 273.029 128.017 259.473 128 245.333V241.792C128 231.509 134.976 222.592 144.939 220.075C162.88 215.595 181.355 213.333 199.851 213.333H312.171C330.667 213.333 349.141 215.595 367.061 220.075C377.045 222.571 384 231.509 384 241.792V245.333Z"
              fill="url(#paint0_linear_0_3)"
            />
            <path
              opacity="0.2"
              d="M79.0187 324.352C79.0187 315.563 79.0187 292.267 96.5547 278.123C97.8057 277.118 98.8141 275.845 99.5048 274.397C100.195 272.949 100.551 271.364 100.544 269.76L100.352 228.352C100.352 134.251 176.917 57.6853 271.019 57.6853C314.261 57.6853 353.685 73.984 383.787 100.587C367.828 82.4037 348.175 67.8325 326.14 57.8449C304.105 47.8573 280.193 42.6828 256 42.6667C161.899 42.6667 85.3333 119.232 85.3333 213.333L85.5253 254.741C85.5274 256.345 85.1701 257.928 84.4798 259.375C83.7894 260.823 82.7835 262.097 81.536 263.104C64 277.248 64 300.544 64 309.333C64 329.301 75.4133 370.261 97.0453 382.869C85.248 365.013 79.0187 339.029 79.0187 324.352Z"
              fill="white"
            />
            <path
              opacity="0.1"
              d="M138.816 277.184C145.003 285.419 153.472 291.755 163.349 295.317L245.333 213.333H202.667L138.816 277.184ZM329.6 214.4L273.195 270.805C276.096 272.085 279.04 273.28 281.579 275.179L298.645 287.979L366.635 219.989C354.464 217.113 342.077 215.244 329.6 214.4Z"
              fill="white"
            />
            <path
              d="M353.835 426.667C359.104 420.331 363.584 413.291 367.531 405.867C356.341 412.43 343.618 415.925 330.645 416H316.693C314.877 419.198 312.256 421.865 309.09 423.736C305.923 425.608 302.323 426.618 298.645 426.667H277.312C271.744 426.657 266.403 424.458 262.443 420.544L303.509 461.611C323.191 454.836 340.61 442.741 353.835 426.667Z"
              fill="url(#paint1_linear_0_3)"
            />
            <defs>
              <linearGradient
                id="paint0_linear_0_3"
                x1="144.512"
                y1="201.429"
                x2="362.56"
                y2="303.104"
                gradientUnits="userSpaceOnUse"
              >
                <stop stop-color="white" stop-opacity="0.2" />
                <stop offset="1" stop-color="white" stop-opacity="0" />
              </linearGradient>
              <linearGradient
                id="paint1_linear_0_3"
                x1="292.395"
                y1="390.592"
                x2="341.504"
                y2="439.723"
                gradientUnits="userSpaceOnUse"
              >
                <stop stop-opacity="0.1" />
                <stop offset="1" stop-opacity="0" />
              </linearGradient>
            </defs>
          </svg>